<mxfile host="app.diagrams.net" modified="2021-09-12T19:57:55.473Z" agent="5.0 (X11)" etag="wrIePd4nxbp-YDYdReWJ" version="15.1.4" type="github" pages="4">
  <diagram id="czYuIRbQ6l2w0m3v4Nq1" name="MER">
    <mxGraphModel dx="1662" dy="791" grid="1" gridSize="10" guides="1" tooltips="1" connect="1" arrows="1" fold="1" page="1" pageScale="1" pageWidth="850" pageHeight="1100" math="0" shadow="0">
      <root>
        <mxCell id="0" />
        <mxCell id="1" parent="0" />
        <mxCell id="hlGLuwuzqGQmsSktjfiK-1" value="vaga_geral" style="shape=table;startSize=30;container=1;collapsible=1;childLayout=tableLayout;fixedRows=1;rowLines=0;fontStyle=1;align=center;resizeLast=1;" parent="1" vertex="1">
          <mxGeometry x="460" y="400" width="320" height="250" as="geometry">
            <mxRectangle x="120" y="120" width="100" height="30" as="alternateBounds" />
          </mxGeometry>
        </mxCell>
        <mxCell id="hlGLuwuzqGQmsSktjfiK-2" value="" style="shape=partialRectangle;collapsible=0;dropTarget=0;pointerEvents=0;fillColor=none;points=[[0,0.5],[1,0.5]];portConstraint=eastwest;top=0;left=0;right=0;bottom=1;" parent="hlGLuwuzqGQmsSktjfiK-1" vertex="1">
          <mxGeometry y="30" width="320" height="30" as="geometry" />
        </mxCell>
        <mxCell id="hlGLuwuzqGQmsSktjfiK-3" value="PK" style="shape=partialRectangle;overflow=hidden;connectable=0;fillColor=none;top=0;left=0;bottom=0;right=0;fontStyle=1;" parent="hlGLuwuzqGQmsSktjfiK-2" vertex="1">
          <mxGeometry width="30" height="30" as="geometry" />
        </mxCell>
        <mxCell id="hlGLuwuzqGQmsSktjfiK-4" value="URL_geral  var_char NOT NULL " style="shape=partialRectangle;overflow=hidden;connectable=0;fillColor=none;top=0;left=0;bottom=0;right=0;align=left;spacingLeft=6;fontStyle=5;" parent="hlGLuwuzqGQmsSktjfiK-2" vertex="1">
          <mxGeometry x="30" width="290" height="30" as="geometry" />
        </mxCell>
        <mxCell id="hlGLuwuzqGQmsSktjfiK-5" value="" style="shape=partialRectangle;collapsible=0;dropTarget=0;pointerEvents=0;fillColor=none;points=[[0,0.5],[1,0.5]];portConstraint=eastwest;top=0;left=0;right=0;bottom=0;" parent="hlGLuwuzqGQmsSktjfiK-1" vertex="1">
          <mxGeometry y="60" width="320" height="30" as="geometry" />
        </mxCell>
        <mxCell id="hlGLuwuzqGQmsSktjfiK-6" value="" style="shape=partialRectangle;overflow=hidden;connectable=0;fillColor=none;top=0;left=0;bottom=0;right=0;" parent="hlGLuwuzqGQmsSktjfiK-5" vertex="1">
          <mxGeometry width="30" height="30" as="geometry" />
        </mxCell>
        <mxCell id="hlGLuwuzqGQmsSktjfiK-7" value="" style="shape=partialRectangle;overflow=hidden;connectable=0;fillColor=none;top=0;left=0;bottom=0;right=0;align=left;spacingLeft=6;" parent="hlGLuwuzqGQmsSktjfiK-5" vertex="1">
          <mxGeometry x="30" width="290" height="30" as="geometry" />
        </mxCell>
        <mxCell id="hlGLuwuzqGQmsSktjfiK-8" value="geral_desc var_charNOT NULL" style="shape=partialRectangle;overflow=hidden;connectable=0;fillColor=none;top=0;left=0;bottom=0;right=0;align=left;spacingLeft=6;" parent="1" vertex="1">
          <mxGeometry x="490" y="493" width="290" height="30" as="geometry" />
        </mxCell>
        <mxCell id="hlGLuwuzqGQmsSktjfiK-9" value="geral_titulo char(50) NOT NULL" style="shape=partialRectangle;overflow=hidden;connectable=0;fillColor=none;top=0;left=0;bottom=0;right=0;align=left;spacingLeft=6;" parent="1" vertex="1">
          <mxGeometry x="490" y="521" width="290" height="30" as="geometry" />
        </mxCell>
        <mxCell id="hlGLuwuzqGQmsSktjfiK-10" value="geral_id int not_null" style="shape=partialRectangle;overflow=hidden;connectable=0;fillColor=none;top=0;left=0;bottom=0;right=0;align=left;spacingLeft=6;" parent="1" vertex="1">
          <mxGeometry x="490" y="467" width="290" height="30" as="geometry" />
        </mxCell>
        <mxCell id="hlGLuwuzqGQmsSktjfiK-11" value="vaga_formatada" style="shape=table;startSize=30;container=1;collapsible=1;childLayout=tableLayout;fixedRows=1;rowLines=0;fontStyle=1;align=center;resizeLast=1;" parent="1" vertex="1">
          <mxGeometry x="460" y="148" width="320" height="192" as="geometry">
            <mxRectangle x="120" y="120" width="100" height="30" as="alternateBounds" />
          </mxGeometry>
        </mxCell>
        <mxCell id="hlGLuwuzqGQmsSktjfiK-12" value="" style="shape=partialRectangle;collapsible=0;dropTarget=0;pointerEvents=0;fillColor=none;points=[[0,0.5],[1,0.5]];portConstraint=eastwest;top=0;left=0;right=0;bottom=1;" parent="hlGLuwuzqGQmsSktjfiK-11" vertex="1">
          <mxGeometry y="30" width="320" height="30" as="geometry" />
        </mxCell>
        <mxCell id="hlGLuwuzqGQmsSktjfiK-13" value="PK" style="shape=partialRectangle;overflow=hidden;connectable=0;fillColor=none;top=0;left=0;bottom=0;right=0;fontStyle=1;" parent="hlGLuwuzqGQmsSktjfiK-12" vertex="1">
          <mxGeometry width="30" height="30" as="geometry" />
        </mxCell>
        <mxCell id="hlGLuwuzqGQmsSktjfiK-14" value="URL_formatada  var_char NOT NULL " style="shape=partialRectangle;overflow=hidden;connectable=0;fillColor=none;top=0;left=0;bottom=0;right=0;align=left;spacingLeft=6;fontStyle=5;" parent="hlGLuwuzqGQmsSktjfiK-12" vertex="1">
          <mxGeometry x="30" width="290" height="30" as="geometry" />
        </mxCell>
        <mxCell id="hlGLuwuzqGQmsSktjfiK-15" value="" style="shape=partialRectangle;collapsible=0;dropTarget=0;pointerEvents=0;fillColor=none;points=[[0,0.5],[1,0.5]];portConstraint=eastwest;top=0;left=0;right=0;bottom=0;" parent="hlGLuwuzqGQmsSktjfiK-11" vertex="1">
          <mxGeometry y="60" width="320" height="30" as="geometry" />
        </mxCell>
        <mxCell id="hlGLuwuzqGQmsSktjfiK-16" value="" style="shape=partialRectangle;overflow=hidden;connectable=0;fillColor=none;top=0;left=0;bottom=0;right=0;" parent="hlGLuwuzqGQmsSktjfiK-15" vertex="1">
          <mxGeometry width="30" height="30" as="geometry" />
        </mxCell>
        <mxCell id="hlGLuwuzqGQmsSktjfiK-17" value="" style="shape=partialRectangle;overflow=hidden;connectable=0;fillColor=none;top=0;left=0;bottom=0;right=0;align=left;spacingLeft=6;" parent="hlGLuwuzqGQmsSktjfiK-15" vertex="1">
          <mxGeometry x="30" width="290" height="30" as="geometry" />
        </mxCell>
        <mxCell id="hlGLuwuzqGQmsSktjfiK-18" value="format_desc var_charNOT NULL" style="shape=partialRectangle;overflow=hidden;connectable=0;fillColor=none;top=0;left=0;bottom=0;right=0;align=left;spacingLeft=6;" parent="1" vertex="1">
          <mxGeometry x="490" y="241" width="290" height="30" as="geometry" />
        </mxCell>
        <mxCell id="hlGLuwuzqGQmsSktjfiK-19" value="format_titulo char(50) NOT NULL" style="shape=partialRectangle;overflow=hidden;connectable=0;fillColor=none;top=0;left=0;bottom=0;right=0;align=left;spacingLeft=6;" parent="1" vertex="1">
          <mxGeometry x="490" y="269" width="290" height="30" as="geometry" />
        </mxCell>
        <mxCell id="hlGLuwuzqGQmsSktjfiK-20" value="format_id int not_null" style="shape=partialRectangle;overflow=hidden;connectable=0;fillColor=none;top=0;left=0;bottom=0;right=0;align=left;spacingLeft=6;" parent="1" vertex="1">
          <mxGeometry x="490" y="215" width="290" height="30" as="geometry" />
        </mxCell>
        <mxCell id="hlGLuwuzqGQmsSktjfiK-21" value="curso" style="shape=table;startSize=30;container=1;collapsible=1;childLayout=tableLayout;fixedRows=1;rowLines=0;fontStyle=1;align=center;resizeLast=1;" parent="1" vertex="1">
          <mxGeometry x="40" y="340" width="320" height="100" as="geometry">
            <mxRectangle x="120" y="120" width="100" height="30" as="alternateBounds" />
          </mxGeometry>
        </mxCell>
        <mxCell id="hlGLuwuzqGQmsSktjfiK-22" value="" style="shape=partialRectangle;collapsible=0;dropTarget=0;pointerEvents=0;fillColor=none;points=[[0,0.5],[1,0.5]];portConstraint=eastwest;top=0;left=0;right=0;bottom=1;" parent="hlGLuwuzqGQmsSktjfiK-21" vertex="1">
          <mxGeometry y="30" width="320" height="30" as="geometry" />
        </mxCell>
        <mxCell id="hlGLuwuzqGQmsSktjfiK-23" value="PK" style="shape=partialRectangle;overflow=hidden;connectable=0;fillColor=none;top=0;left=0;bottom=0;right=0;fontStyle=1;" parent="hlGLuwuzqGQmsSktjfiK-22" vertex="1">
          <mxGeometry width="30" height="30" as="geometry" />
        </mxCell>
        <mxCell id="hlGLuwuzqGQmsSktjfiK-24" value="curso_id int NOT NULL" style="shape=partialRectangle;overflow=hidden;connectable=0;fillColor=none;top=0;left=0;bottom=0;right=0;align=left;spacingLeft=6;fontStyle=5;" parent="hlGLuwuzqGQmsSktjfiK-22" vertex="1">
          <mxGeometry x="30" width="290" height="30" as="geometry" />
        </mxCell>
        <mxCell id="hlGLuwuzqGQmsSktjfiK-25" value="" style="shape=partialRectangle;collapsible=0;dropTarget=0;pointerEvents=0;fillColor=none;points=[[0,0.5],[1,0.5]];portConstraint=eastwest;top=0;left=0;right=0;bottom=0;" parent="hlGLuwuzqGQmsSktjfiK-21" vertex="1">
          <mxGeometry y="60" width="320" height="30" as="geometry" />
        </mxCell>
        <mxCell id="hlGLuwuzqGQmsSktjfiK-26" value="" style="shape=partialRectangle;overflow=hidden;connectable=0;fillColor=none;top=0;left=0;bottom=0;right=0;" parent="hlGLuwuzqGQmsSktjfiK-25" vertex="1">
          <mxGeometry width="30" height="30" as="geometry" />
        </mxCell>
        <mxCell id="hlGLuwuzqGQmsSktjfiK-27" value="" style="shape=partialRectangle;overflow=hidden;connectable=0;fillColor=none;top=0;left=0;bottom=0;right=0;align=left;spacingLeft=6;" parent="hlGLuwuzqGQmsSktjfiK-25" vertex="1">
          <mxGeometry x="30" width="290" height="30" as="geometry" />
        </mxCell>
        <mxCell id="hlGLuwuzqGQmsSktjfiK-28" value="materia_id int NOT NULL" style="shape=partialRectangle;overflow=hidden;connectable=0;fillColor=none;top=0;left=0;bottom=0;right=0;align=left;spacingLeft=6;" parent="1" vertex="1">
          <mxGeometry x="490" y="548" width="290" height="30" as="geometry" />
        </mxCell>
        <mxCell id="hlGLuwuzqGQmsSktjfiK-29" value="FK" style="text;html=1;align=center;verticalAlign=middle;resizable=0;points=[];autosize=1;strokeColor=none;" parent="1" vertex="1">
          <mxGeometry x="460" y="554" width="30" height="20" as="geometry" />
        </mxCell>
        <mxCell id="hlGLuwuzqGQmsSktjfiK-30" value="materia_id int NOT NULL" style="shape=partialRectangle;overflow=hidden;connectable=0;fillColor=none;top=0;left=0;bottom=0;right=0;align=left;spacingLeft=6;" parent="1" vertex="1">
          <mxGeometry x="490" y="301" width="290" height="30" as="geometry" />
        </mxCell>
        <mxCell id="hlGLuwuzqGQmsSktjfiK-31" value="FK" style="text;html=1;align=center;verticalAlign=middle;resizable=0;points=[];autosize=1;strokeColor=none;" parent="1" vertex="1">
          <mxGeometry x="460" y="307" width="30" height="20" as="geometry" />
        </mxCell>
        <mxCell id="R3ozqUevTF7wbkg006Hf-2" value="data_validade date NOT NULL *" style="shape=partialRectangle;overflow=hidden;connectable=0;fillColor=none;top=0;left=0;bottom=0;right=0;align=left;spacingLeft=6;" parent="1" vertex="1">
          <mxGeometry x="492" y="578" width="290" height="30" as="geometry" />
        </mxCell>
        <mxCell id="R3ozqUevTF7wbkg006Hf-3" value="*Apagar as vagas após vencimento" style="text;html=1;strokeColor=none;fillColor=none;align=center;verticalAlign=middle;whiteSpace=wrap;rounded=0;" parent="1" vertex="1">
          <mxGeometry x="492" y="664" width="220" height="20" as="geometry" />
        </mxCell>
        <mxCell id="rCnXIu9rss3aTeOQ9NVy-1" value="curso_titulo var_char NOT NULL" style="shape=partialRectangle;overflow=hidden;connectable=0;fillColor=none;top=0;left=0;bottom=0;right=0;align=left;spacingLeft=6;" parent="1" vertex="1">
          <mxGeometry x="70" y="405" width="290" height="30" as="geometry" />
        </mxCell>
        <mxCell id="pCmWFzZ8pjuEXUEqFDOf-1" value="cargo var_char NOT NULL" style="shape=partialRectangle;overflow=hidden;connectable=0;fillColor=none;top=0;left=0;bottom=0;right=0;align=left;spacingLeft=6;" parent="1" vertex="1">
          <mxGeometry x="492" y="608" width="290" height="30" as="geometry" />
        </mxCell>
        <mxCell id="zHBVvSDw4twC0zRW19pt-10" style="edgeStyle=none;rounded=0;html=1;startArrow=ERmandOne;startFill=0;endArrow=ERzeroToMany;endFill=1;jettySize=auto;orthogonalLoop=1;strokeColor=#000066;fontSize=13;entryX=0.033;entryY=0.517;entryDx=0;entryDy=0;entryPerimeter=0;exitX=1;exitY=0.5;exitDx=0;exitDy=0;" parent="1" source="hlGLuwuzqGQmsSktjfiK-22" target="hlGLuwuzqGQmsSktjfiK-31" edge="1">
          <mxGeometry relative="1" as="geometry">
            <mxPoint x="460" y="270" as="sourcePoint" />
            <mxPoint x="430" y="390" as="targetPoint" />
            <Array as="points" />
          </mxGeometry>
        </mxCell>
        <mxCell id="zHBVvSDw4twC0zRW19pt-11" style="edgeStyle=none;rounded=0;html=1;startArrow=ERmandOne;startFill=0;endArrow=ERzeroToMany;endFill=1;jettySize=auto;orthogonalLoop=1;strokeColor=#000066;fontSize=13;entryX=0;entryY=0.5;entryDx=0;entryDy=0;" parent="1" target="hlGLuwuzqGQmsSktjfiK-2" edge="1">
          <mxGeometry relative="1" as="geometry">
            <mxPoint x="360" y="420" as="sourcePoint" />
            <mxPoint x="470.99" y="327.34000000000003" as="targetPoint" />
            <Array as="points" />
          </mxGeometry>
        </mxCell>
      </root>
    </mxGraphModel>
  </diagram>
  <diagram id="5HQZHZXI6CJOZLei4cRY" name="Caso de uso">
    <mxGraphModel dx="1185" dy="659" grid="1" gridSize="10" guides="1" tooltips="1" connect="1" arrows="1" fold="1" page="1" pageScale="1" pageWidth="850" pageHeight="1100" math="0" shadow="0">
      <root>
        <mxCell id="19ek_G5kQp1LX_UoxI3b-0" />
        <mxCell id="19ek_G5kQp1LX_UoxI3b-1" parent="19ek_G5kQp1LX_UoxI3b-0" />
        <mxCell id="v95JeKkRksGh9sBzTp4K-0" value="" style="rounded=1;whiteSpace=wrap;html=1;" parent="19ek_G5kQp1LX_UoxI3b-1" vertex="1">
          <mxGeometry x="340" y="180" width="210" height="390" as="geometry" />
        </mxCell>
        <mxCell id="DesbnE-GQGL-AsB6o-nn-5" style="edgeStyle=orthogonalEdgeStyle;rounded=0;orthogonalLoop=1;jettySize=auto;html=1;entryX=1;entryY=0.5;entryDx=0;entryDy=0;" parent="19ek_G5kQp1LX_UoxI3b-1" source="v95JeKkRksGh9sBzTp4K-1" target="v95JeKkRksGh9sBzTp4K-8" edge="1">
          <mxGeometry relative="1" as="geometry" />
        </mxCell>
        <mxCell id="v95JeKkRksGh9sBzTp4K-1" value="&lt;div&gt;candidato&lt;/div&gt;" style="shape=umlActor;verticalLabelPosition=bottom;verticalAlign=top;html=1;outlineConnect=0;" parent="19ek_G5kQp1LX_UoxI3b-1" vertex="1">
          <mxGeometry x="660" y="250" width="30" height="60" as="geometry" />
        </mxCell>
        <mxCell id="DesbnE-GQGL-AsB6o-nn-7" style="edgeStyle=orthogonalEdgeStyle;rounded=0;orthogonalLoop=1;jettySize=auto;html=1;entryX=0.5;entryY=1;entryDx=0;entryDy=0;" parent="19ek_G5kQp1LX_UoxI3b-1" source="v95JeKkRksGh9sBzTp4K-3" target="v95JeKkRksGh9sBzTp4K-8" edge="1">
          <mxGeometry relative="1" as="geometry" />
        </mxCell>
        <mxCell id="v95JeKkRksGh9sBzTp4K-3" value="/" style="ellipse;whiteSpace=wrap;html=1;" parent="19ek_G5kQp1LX_UoxI3b-1" vertex="1">
          <mxGeometry x="385.5" y="360" width="120" height="60" as="geometry" />
        </mxCell>
        <mxCell id="v95JeKkRksGh9sBzTp4K-6" value="TecBusca" style="text;html=1;strokeColor=none;fillColor=none;align=center;verticalAlign=middle;whiteSpace=wrap;rounded=0;" parent="19ek_G5kQp1LX_UoxI3b-1" vertex="1">
          <mxGeometry x="400" y="200" width="90" height="20" as="geometry" />
        </mxCell>
        <mxCell id="v95JeKkRksGh9sBzTp4K-7" value="&lt;div&gt;Visualizar&lt;/div&gt;&lt;div&gt;vagas&lt;/div&gt;" style="text;html=1;strokeColor=none;fillColor=none;align=center;verticalAlign=middle;whiteSpace=wrap;rounded=0;" parent="19ek_G5kQp1LX_UoxI3b-1" vertex="1">
          <mxGeometry x="402.5" y="376" width="90" height="30" as="geometry" />
        </mxCell>
        <mxCell id="v95JeKkRksGh9sBzTp4K-8" value="" style="ellipse;whiteSpace=wrap;html=1;" parent="19ek_G5kQp1LX_UoxI3b-1" vertex="1">
          <mxGeometry x="385" y="250" width="120" height="60" as="geometry" />
        </mxCell>
        <mxCell id="v95JeKkRksGh9sBzTp4K-9" value="Pesquisar vagas" style="text;html=1;strokeColor=none;fillColor=none;align=center;verticalAlign=middle;whiteSpace=wrap;rounded=0;" parent="19ek_G5kQp1LX_UoxI3b-1" vertex="1">
          <mxGeometry x="400" y="260" width="90" height="40" as="geometry" />
        </mxCell>
        <mxCell id="DesbnE-GQGL-AsB6o-nn-8" style="edgeStyle=orthogonalEdgeStyle;rounded=0;orthogonalLoop=1;jettySize=auto;html=1;entryX=0;entryY=0.5;entryDx=0;entryDy=0;" parent="19ek_G5kQp1LX_UoxI3b-1" source="DesbnE-GQGL-AsB6o-nn-0" target="DesbnE-GQGL-AsB6o-nn-1" edge="1">
          <mxGeometry relative="1" as="geometry" />
        </mxCell>
        <mxCell id="DesbnE-GQGL-AsB6o-nn-0" value="Sistema" style="shape=umlActor;verticalLabelPosition=bottom;verticalAlign=top;html=1;outlineConnect=0;" parent="19ek_G5kQp1LX_UoxI3b-1" vertex="1">
          <mxGeometry x="160" y="470" width="30" height="60" as="geometry" />
        </mxCell>
        <mxCell id="DesbnE-GQGL-AsB6o-nn-1" value="" style="ellipse;whiteSpace=wrap;html=1;" parent="19ek_G5kQp1LX_UoxI3b-1" vertex="1">
          <mxGeometry x="390" y="470" width="115" height="60" as="geometry" />
        </mxCell>
        <mxCell id="DesbnE-GQGL-AsB6o-nn-2" value="Cadastrar vagas" style="text;html=1;strokeColor=none;fillColor=none;align=center;verticalAlign=middle;whiteSpace=wrap;rounded=0;" parent="19ek_G5kQp1LX_UoxI3b-1" vertex="1">
          <mxGeometry x="400" y="480" width="90" height="40" as="geometry" />
        </mxCell>
      </root>
    </mxGraphModel>
  </diagram>
  <diagram id="tID1n13CGh0lt_Elbe-U" name="Diagrama de atividades">
    <mxGraphModel dx="1822" dy="791" grid="1" gridSize="10" guides="1" tooltips="1" connect="1" arrows="1" fold="1" page="0" pageScale="1" pageWidth="850" pageHeight="1100" math="0" shadow="0">
      <root>
        <mxCell id="aurPjL6bR6JKtBZm8IZp-0" />
        <mxCell id="aurPjL6bR6JKtBZm8IZp-1" parent="aurPjL6bR6JKtBZm8IZp-0" />
        <mxCell id="aurPjL6bR6JKtBZm8IZp-7" value="" style="shape=table;startSize=0;container=1;collapsible=0;childLayout=tableLayout;" parent="aurPjL6bR6JKtBZm8IZp-1" vertex="1">
          <mxGeometry x="-80" y="102" width="920" height="658" as="geometry" />
        </mxCell>
        <mxCell id="aurPjL6bR6JKtBZm8IZp-8" value="" style="shape=partialRectangle;collapsible=0;dropTarget=0;pointerEvents=0;fillColor=none;top=0;left=0;bottom=0;right=0;points=[[0,0.5],[1,0.5]];portConstraint=eastwest;" parent="aurPjL6bR6JKtBZm8IZp-7" vertex="1">
          <mxGeometry width="920" height="106" as="geometry" />
        </mxCell>
        <mxCell id="aurPjL6bR6JKtBZm8IZp-9" value="&lt;div&gt;&lt;br&gt;&lt;/div&gt;&lt;div&gt;&lt;br&gt;&lt;/div&gt;" style="shape=partialRectangle;html=1;whiteSpace=wrap;connectable=0;overflow=hidden;fillColor=none;top=0;left=0;bottom=0;right=0;pointerEvents=1;" parent="aurPjL6bR6JKtBZm8IZp-8" vertex="1">
          <mxGeometry width="460" height="106" as="geometry" />
        </mxCell>
        <mxCell id="aurPjL6bR6JKtBZm8IZp-10" value="" style="shape=partialRectangle;html=1;whiteSpace=wrap;connectable=0;overflow=hidden;fillColor=none;top=0;left=0;bottom=0;right=0;pointerEvents=1;" parent="aurPjL6bR6JKtBZm8IZp-8" vertex="1">
          <mxGeometry x="460" width="460" height="106" as="geometry" />
        </mxCell>
        <mxCell id="aurPjL6bR6JKtBZm8IZp-12" value="" style="shape=partialRectangle;collapsible=0;dropTarget=0;pointerEvents=0;fillColor=none;top=0;left=0;bottom=0;right=0;points=[[0,0.5],[1,0.5]];portConstraint=eastwest;" parent="aurPjL6bR6JKtBZm8IZp-7" vertex="1">
          <mxGeometry y="106" width="920" height="552" as="geometry" />
        </mxCell>
        <mxCell id="aurPjL6bR6JKtBZm8IZp-13" value="" style="shape=partialRectangle;html=1;whiteSpace=wrap;connectable=0;overflow=hidden;fillColor=none;top=0;left=0;bottom=0;right=0;pointerEvents=1;" parent="aurPjL6bR6JKtBZm8IZp-12" vertex="1">
          <mxGeometry width="460" height="552" as="geometry" />
        </mxCell>
        <mxCell id="aurPjL6bR6JKtBZm8IZp-14" value="" style="shape=partialRectangle;html=1;whiteSpace=wrap;connectable=0;overflow=hidden;fillColor=none;top=0;left=0;bottom=0;right=0;pointerEvents=1;" parent="aurPjL6bR6JKtBZm8IZp-12" vertex="1">
          <mxGeometry x="460" width="460" height="552" as="geometry" />
        </mxCell>
        <mxCell id="lxFaHfnZ8NVm4HfucrU9-0" value="Scrapper" style="text;html=1;strokeColor=none;fillColor=none;align=center;verticalAlign=middle;whiteSpace=wrap;rounded=0;fontSize=14;" parent="aurPjL6bR6JKtBZm8IZp-1" vertex="1">
          <mxGeometry x="-40" y="102" width="390" height="110" as="geometry" />
        </mxCell>
        <mxCell id="lxFaHfnZ8NVm4HfucrU9-1" value="Classificador&lt;span style=&quot;font-weight: normal&quot;&gt;&lt;font style=&quot;font-size: 14px&quot;&gt; &lt;font style=&quot;font-size: 14px&quot;&gt;Naïve Bayes&lt;/font&gt;&lt;/font&gt;&lt;/span&gt;" style="text;html=1;strokeColor=none;fillColor=none;align=center;verticalAlign=middle;whiteSpace=wrap;rounded=0;fontSize=14;" parent="aurPjL6bR6JKtBZm8IZp-1" vertex="1">
          <mxGeometry x="420" y="102" width="390" height="110" as="geometry" />
        </mxCell>
        <mxCell id="naWIAP0rL2fQ-8MfCSMc-4" style="edgeStyle=orthogonalEdgeStyle;rounded=0;orthogonalLoop=1;jettySize=auto;html=1;entryX=0.5;entryY=0;entryDx=0;entryDy=0;" edge="1" parent="aurPjL6bR6JKtBZm8IZp-1" source="vH5uTCs458pLMklBIXI0-0" target="naWIAP0rL2fQ-8MfCSMc-0">
          <mxGeometry relative="1" as="geometry" />
        </mxCell>
        <mxCell id="vH5uTCs458pLMklBIXI0-0" value="" style="ellipse;whiteSpace=wrap;html=1;fontSize=14;fillColor=#000000;" parent="aurPjL6bR6JKtBZm8IZp-1" vertex="1">
          <mxGeometry x="164" y="260" width="10" height="10" as="geometry" />
        </mxCell>
        <mxCell id="naWIAP0rL2fQ-8MfCSMc-11" style="edgeStyle=orthogonalEdgeStyle;rounded=0;orthogonalLoop=1;jettySize=auto;html=1;exitX=0.5;exitY=1;exitDx=0;exitDy=0;entryX=0.25;entryY=0;entryDx=0;entryDy=0;" edge="1" parent="aurPjL6bR6JKtBZm8IZp-1" source="vH5uTCs458pLMklBIXI0-1" target="naWIAP0rL2fQ-8MfCSMc-9">
          <mxGeometry relative="1" as="geometry" />
        </mxCell>
        <mxCell id="vH5uTCs458pLMklBIXI0-1" value="Coleta dados públicos sobre vagas de emprego" style="rounded=1;whiteSpace=wrap;html=1;fontSize=14;fillColor=#FFFFFF;" parent="aurPjL6bR6JKtBZm8IZp-1" vertex="1">
          <mxGeometry x="-30" y="415.5" width="170" height="60" as="geometry" />
        </mxCell>
        <mxCell id="vH5uTCs458pLMklBIXI0-25" style="edgeStyle=orthogonalEdgeStyle;rounded=0;orthogonalLoop=1;jettySize=auto;html=1;entryX=0.5;entryY=0;entryDx=0;entryDy=0;fontSize=14;" parent="aurPjL6bR6JKtBZm8IZp-1" source="vH5uTCs458pLMklBIXI0-6" target="vH5uTCs458pLMklBIXI0-8" edge="1">
          <mxGeometry relative="1" as="geometry" />
        </mxCell>
        <mxCell id="vH5uTCs458pLMklBIXI0-6" value="Cria modelo &lt;span&gt;matemático&lt;/span&gt; de probabilidade das vagas " style="rounded=1;whiteSpace=wrap;html=1;fontSize=14;fillColor=#FFFFFF;" parent="aurPjL6bR6JKtBZm8IZp-1" vertex="1">
          <mxGeometry x="530" y="283.25" width="200" height="99" as="geometry" />
        </mxCell>
        <mxCell id="vH5uTCs458pLMklBIXI0-38" style="edgeStyle=orthogonalEdgeStyle;rounded=0;orthogonalLoop=1;jettySize=auto;html=1;entryX=0.5;entryY=0;entryDx=0;entryDy=0;fontSize=14;" parent="aurPjL6bR6JKtBZm8IZp-1" source="vH5uTCs458pLMklBIXI0-8" target="vH5uTCs458pLMklBIXI0-10" edge="1">
          <mxGeometry relative="1" as="geometry" />
        </mxCell>
        <mxCell id="vH5uTCs458pLMklBIXI0-8" value="Adiciona o curso mais &lt;span&gt;&lt;span&gt;provável&lt;/span&gt;&lt;/span&gt; para a vaga" style="rounded=1;whiteSpace=wrap;html=1;fontSize=14;fillColor=#FFFFFF;" parent="aurPjL6bR6JKtBZm8IZp-1" vertex="1">
          <mxGeometry x="545" y="443.25" width="170" height="60" as="geometry" />
        </mxCell>
        <mxCell id="na8McflsTY5gKP1Aiji4-3" style="edgeStyle=orthogonalEdgeStyle;rounded=0;orthogonalLoop=1;jettySize=auto;html=1;entryX=0.5;entryY=0;entryDx=0;entryDy=0;" edge="1" parent="aurPjL6bR6JKtBZm8IZp-1" source="vH5uTCs458pLMklBIXI0-10" target="na8McflsTY5gKP1Aiji4-1">
          <mxGeometry relative="1" as="geometry" />
        </mxCell>
        <mxCell id="vH5uTCs458pLMklBIXI0-10" value="Armazena vagas no banco de dados" style="rounded=1;whiteSpace=wrap;html=1;fontSize=14;fillColor=#FFFFFF;" parent="aurPjL6bR6JKtBZm8IZp-1" vertex="1">
          <mxGeometry x="537.5" y="573.25" width="185" height="63.5" as="geometry" />
        </mxCell>
        <mxCell id="naWIAP0rL2fQ-8MfCSMc-10" style="edgeStyle=orthogonalEdgeStyle;rounded=0;orthogonalLoop=1;jettySize=auto;html=1;entryX=0.75;entryY=0;entryDx=0;entryDy=0;" edge="1" parent="aurPjL6bR6JKtBZm8IZp-1" source="vH5uTCs458pLMklBIXI0-20" target="naWIAP0rL2fQ-8MfCSMc-9">
          <mxGeometry relative="1" as="geometry" />
        </mxCell>
        <mxCell id="vH5uTCs458pLMklBIXI0-20" value="Coleta dados públicos sobre vagas de emprego classificadas com os cursos da FATEC Indaiatuba" style="rounded=1;whiteSpace=wrap;html=1;fontSize=14;fillColor=#FFFFFF;" parent="aurPjL6bR6JKtBZm8IZp-1" vertex="1">
          <mxGeometry x="170" y="415.5" width="170" height="140" as="geometry" />
        </mxCell>
        <mxCell id="naWIAP0rL2fQ-8MfCSMc-5" style="edgeStyle=orthogonalEdgeStyle;rounded=0;orthogonalLoop=1;jettySize=auto;html=1;exitX=0.25;exitY=1;exitDx=0;exitDy=0;" edge="1" parent="aurPjL6bR6JKtBZm8IZp-1" source="naWIAP0rL2fQ-8MfCSMc-0" target="vH5uTCs458pLMklBIXI0-1">
          <mxGeometry relative="1" as="geometry" />
        </mxCell>
        <mxCell id="naWIAP0rL2fQ-8MfCSMc-6" style="edgeStyle=orthogonalEdgeStyle;rounded=0;orthogonalLoop=1;jettySize=auto;html=1;exitX=0.75;exitY=1;exitDx=0;exitDy=0;entryX=0.5;entryY=0;entryDx=0;entryDy=0;" edge="1" parent="aurPjL6bR6JKtBZm8IZp-1" source="naWIAP0rL2fQ-8MfCSMc-0" target="vH5uTCs458pLMklBIXI0-20">
          <mxGeometry relative="1" as="geometry" />
        </mxCell>
        <mxCell id="naWIAP0rL2fQ-8MfCSMc-0" value="" style="rounded=0;whiteSpace=wrap;html=1;fillColor=#000000;" vertex="1" parent="aurPjL6bR6JKtBZm8IZp-1">
          <mxGeometry x="84" y="330" width="170" height="10" as="geometry" />
        </mxCell>
        <mxCell id="naWIAP0rL2fQ-8MfCSMc-12" style="edgeStyle=orthogonalEdgeStyle;rounded=0;orthogonalLoop=1;jettySize=auto;html=1;entryX=0.5;entryY=0;entryDx=0;entryDy=0;exitX=0.5;exitY=1;exitDx=0;exitDy=0;" edge="1" parent="aurPjL6bR6JKtBZm8IZp-1" source="naWIAP0rL2fQ-8MfCSMc-9" target="vH5uTCs458pLMklBIXI0-6">
          <mxGeometry relative="1" as="geometry">
            <Array as="points">
              <mxPoint x="169" y="670" />
              <mxPoint x="400" y="670" />
              <mxPoint x="400" y="263" />
              <mxPoint x="630" y="263" />
            </Array>
          </mxGeometry>
        </mxCell>
        <mxCell id="naWIAP0rL2fQ-8MfCSMc-9" value="" style="rounded=0;whiteSpace=wrap;html=1;fillColor=#000000;" vertex="1" parent="aurPjL6bR6JKtBZm8IZp-1">
          <mxGeometry x="84" y="636.75" width="170" height="10" as="geometry" />
        </mxCell>
        <mxCell id="na8McflsTY5gKP1Aiji4-0" value="" style="ellipse;whiteSpace=wrap;html=1;fillColor=#FFFFFF;" vertex="1" parent="aurPjL6bR6JKtBZm8IZp-1">
          <mxGeometry x="620" y="680" width="20" height="20" as="geometry" />
        </mxCell>
        <mxCell id="na8McflsTY5gKP1Aiji4-1" value="" style="ellipse;whiteSpace=wrap;html=1;fillColor=#000000;" vertex="1" parent="aurPjL6bR6JKtBZm8IZp-1">
          <mxGeometry x="622.5" y="682.5" width="15" height="15" as="geometry" />
        </mxCell>
      </root>
    </mxGraphModel>
  </diagram>
  <diagram id="aisuCKKcL6ie5D2Abgce" name="Backend">
    <mxGraphModel dx="1422" dy="791" grid="1" gridSize="10" guides="1" tooltips="1" connect="1" arrows="1" fold="1" page="1" pageScale="1" pageWidth="850" pageHeight="1100" math="0" shadow="0">
      <root>
        <mxCell id="ZbOP_SiQyYZVw6nDdga3-0" />
        <mxCell id="ZbOP_SiQyYZVw6nDdga3-1" parent="ZbOP_SiQyYZVw6nDdga3-0" />
        <mxCell id="8CTW8WGa_6YBMdzI0ur9-19" style="edgeStyle=orthogonalEdgeStyle;rounded=0;orthogonalLoop=1;jettySize=auto;html=1;entryX=0.75;entryY=0;entryDx=0;entryDy=0;" edge="1" parent="ZbOP_SiQyYZVw6nDdga3-1" source="ZbOP_SiQyYZVw6nDdga3-3" target="8CTW8WGa_6YBMdzI0ur9-18">
          <mxGeometry relative="1" as="geometry" />
        </mxCell>
        <mxCell id="ZbOP_SiQyYZVw6nDdga3-3" value="Coleta dados públicos sobre vagas de emprego" style="rounded=1;whiteSpace=wrap;html=1;gradientColor=none;fillColor=#FFFFFF;" parent="ZbOP_SiQyYZVw6nDdga3-1" vertex="1">
          <mxGeometry x="449" y="241" width="170" height="80" as="geometry" />
        </mxCell>
        <mxCell id="8CTW8WGa_6YBMdzI0ur9-20" style="edgeStyle=orthogonalEdgeStyle;rounded=0;orthogonalLoop=1;jettySize=auto;html=1;entryX=0.25;entryY=0;entryDx=0;entryDy=0;" edge="1" parent="ZbOP_SiQyYZVw6nDdga3-1" source="S-wmxlLMF9Ut2aDjri9g-0" target="8CTW8WGa_6YBMdzI0ur9-18">
          <mxGeometry relative="1" as="geometry" />
        </mxCell>
        <mxCell id="S-wmxlLMF9Ut2aDjri9g-0" value="&lt;font style=&quot;font-size: 12px&quot;&gt;Coleta dados públicos sobre vagas de emprego classificadas com os cursos da FATEC Indaiatuba&lt;/font&gt;" style="rounded=1;whiteSpace=wrap;html=1;fontSize=14;fillColor=#FFFFFF;" parent="ZbOP_SiQyYZVw6nDdga3-1" vertex="1">
          <mxGeometry x="180" y="220" width="221" height="130" as="geometry" />
        </mxCell>
        <mxCell id="XmwQlb7fUhFF0hy-sNln-1" value="" style="edgeStyle=orthogonalEdgeStyle;rounded=0;orthogonalLoop=1;jettySize=auto;html=1;" parent="ZbOP_SiQyYZVw6nDdga3-1" source="x2gcA0a4yG7n2q50RaGc-0" target="XmwQlb7fUhFF0hy-sNln-0" edge="1">
          <mxGeometry relative="1" as="geometry" />
        </mxCell>
        <mxCell id="x2gcA0a4yG7n2q50RaGc-0" value="Cria modelo &lt;span&gt;matemático&lt;/span&gt; de probabilidade das vagas " style="rounded=1;whiteSpace=wrap;html=1;fontSize=14;fillColor=#FFFFFF;" parent="ZbOP_SiQyYZVw6nDdga3-1" vertex="1">
          <mxGeometry x="326" y="488" width="200" height="119" as="geometry" />
        </mxCell>
        <mxCell id="lp4mQN0Nt_HTfP5l72bY-1" value="" style="edgeStyle=orthogonalEdgeStyle;rounded=0;orthogonalLoop=1;jettySize=auto;html=1;" parent="ZbOP_SiQyYZVw6nDdga3-1" source="XmwQlb7fUhFF0hy-sNln-0" target="lp4mQN0Nt_HTfP5l72bY-0" edge="1">
          <mxGeometry relative="1" as="geometry" />
        </mxCell>
        <mxCell id="XmwQlb7fUhFF0hy-sNln-0" value="Adiciona o curso mais &lt;span&gt;&lt;span&gt;provável&lt;/span&gt;&lt;/span&gt; para a vaga" style="rounded=1;whiteSpace=wrap;html=1;fontSize=14;fillColor=#FFFFFF;" parent="ZbOP_SiQyYZVw6nDdga3-1" vertex="1">
          <mxGeometry x="341" y="655" width="170" height="60" as="geometry" />
        </mxCell>
        <mxCell id="8CTW8WGa_6YBMdzI0ur9-24" style="edgeStyle=orthogonalEdgeStyle;rounded=0;orthogonalLoop=1;jettySize=auto;html=1;entryX=0.5;entryY=0;entryDx=0;entryDy=0;" edge="1" parent="ZbOP_SiQyYZVw6nDdga3-1" source="lp4mQN0Nt_HTfP5l72bY-0" target="8CTW8WGa_6YBMdzI0ur9-23">
          <mxGeometry relative="1" as="geometry" />
        </mxCell>
        <mxCell id="lp4mQN0Nt_HTfP5l72bY-0" value="Armazena vagas no banco de dados" style="rounded=1;whiteSpace=wrap;html=1;fontSize=14;fillColor=#FFFFFF;" parent="ZbOP_SiQyYZVw6nDdga3-1" vertex="1">
          <mxGeometry x="334" y="790" width="185" height="63.5" as="geometry" />
        </mxCell>
        <mxCell id="8CTW8WGa_6YBMdzI0ur9-16" style="edgeStyle=orthogonalEdgeStyle;rounded=0;orthogonalLoop=1;jettySize=auto;html=1;exitX=0.25;exitY=1;exitDx=0;exitDy=0;entryX=0.447;entryY=-0.008;entryDx=0;entryDy=0;entryPerimeter=0;" edge="1" parent="ZbOP_SiQyYZVw6nDdga3-1" source="8CTW8WGa_6YBMdzI0ur9-5" target="S-wmxlLMF9Ut2aDjri9g-0">
          <mxGeometry relative="1" as="geometry" />
        </mxCell>
        <mxCell id="8CTW8WGa_6YBMdzI0ur9-17" style="edgeStyle=orthogonalEdgeStyle;rounded=0;orthogonalLoop=1;jettySize=auto;html=1;exitX=0.75;exitY=1;exitDx=0;exitDy=0;entryX=0.5;entryY=0;entryDx=0;entryDy=0;" edge="1" parent="ZbOP_SiQyYZVw6nDdga3-1" source="8CTW8WGa_6YBMdzI0ur9-5" target="ZbOP_SiQyYZVw6nDdga3-3">
          <mxGeometry relative="1" as="geometry">
            <Array as="points">
              <mxPoint x="469" y="180" />
              <mxPoint x="534" y="180" />
            </Array>
          </mxGeometry>
        </mxCell>
        <mxCell id="8CTW8WGa_6YBMdzI0ur9-5" value="" style="rounded=0;whiteSpace=wrap;html=1;fillColor=#000000;" vertex="1" parent="ZbOP_SiQyYZVw6nDdga3-1">
          <mxGeometry x="341" y="140" width="170" height="10" as="geometry" />
        </mxCell>
        <mxCell id="8CTW8WGa_6YBMdzI0ur9-15" style="edgeStyle=orthogonalEdgeStyle;rounded=0;orthogonalLoop=1;jettySize=auto;html=1;entryX=0.5;entryY=0;entryDx=0;entryDy=0;" edge="1" parent="ZbOP_SiQyYZVw6nDdga3-1" source="8CTW8WGa_6YBMdzI0ur9-14" target="8CTW8WGa_6YBMdzI0ur9-5">
          <mxGeometry relative="1" as="geometry" />
        </mxCell>
        <mxCell id="8CTW8WGa_6YBMdzI0ur9-14" value="" style="ellipse;whiteSpace=wrap;html=1;fillColor=#000000;" vertex="1" parent="ZbOP_SiQyYZVw6nDdga3-1">
          <mxGeometry x="416" y="80" width="20" height="20" as="geometry" />
        </mxCell>
        <mxCell id="8CTW8WGa_6YBMdzI0ur9-21" style="edgeStyle=orthogonalEdgeStyle;rounded=0;orthogonalLoop=1;jettySize=auto;html=1;entryX=0.5;entryY=0;entryDx=0;entryDy=0;" edge="1" parent="ZbOP_SiQyYZVw6nDdga3-1" source="8CTW8WGa_6YBMdzI0ur9-18" target="x2gcA0a4yG7n2q50RaGc-0">
          <mxGeometry relative="1" as="geometry" />
        </mxCell>
        <mxCell id="8CTW8WGa_6YBMdzI0ur9-18" value="" style="rounded=0;whiteSpace=wrap;html=1;fillColor=#000000;" vertex="1" parent="ZbOP_SiQyYZVw6nDdga3-1">
          <mxGeometry x="341" y="410" width="170" height="10" as="geometry" />
        </mxCell>
        <mxCell id="8CTW8WGa_6YBMdzI0ur9-23" value="" style="ellipse;whiteSpace=wrap;html=1;fillColor=#FFFFFF;" vertex="1" parent="ZbOP_SiQyYZVw6nDdga3-1">
          <mxGeometry x="417" y="920" width="20" height="20" as="geometry" />
        </mxCell>
        <mxCell id="8CTW8WGa_6YBMdzI0ur9-25" value="" style="ellipse;whiteSpace=wrap;html=1;fillColor=#000000;" vertex="1" parent="ZbOP_SiQyYZVw6nDdga3-1">
          <mxGeometry x="419.5" y="922.5" width="15" height="15" as="geometry" />
        </mxCell>
      </root>
    </mxGraphModel>
  </diagram>
</mxfile>
